<svg width="930.197" height="503.824" xml:space="preserve" xmlns="http://www.w3.org/2000/svg"><path style="fill:#fff;fill-opacity:1;box-shadow: 0px 25px 50px rgba(0, 0, 0, 0.03);" d="m213.182 100.927 1.03 370.751s-3.09 50.463 105.046 90.628c108.136 40.165 256.436 41.195 256.436 41.195s21.628 6.179 38.105-23.687c16.478-29.866 61.792-32.956 61.792-32.956s40.165 2.06 53.553 17.508c13.388 15.448 23.687 35.015 36.045 39.135 12.359 4.12 57.673-3.09 78.27-5.15 20.597-2.06 156.54-21.627 182.286-31.925 25.747-10.299 110.196-44.285 115.345-93.718 5.15-49.434 0-370.751 0-370.751z" transform="translate(-213.182 -100.927)"/></svg>